<svg class="xl-chart" viewBox="0 0 750 400" width="750" height="400" xmlns="http://www.w3.org/2000/svg" style="font-family: Aptos, Calibri, -apple-system, sans-serif; background: #ffffff; border: 1px solid #d9d9d9; box-sizing: border-box; display: block;">
<text x="375" y="22" text-anchor="middle" font-size="14" font-weight="bold" fill="#000000">Column values</text>
<line x1="60" y1="355" x2="730" y2="355" stroke="#bfbfbf" stroke-width="1"></line>
<text x="52" y="359" text-anchor="end" font-size="11" fill="#333333">-5</text>
<line x1="60" y1="277" x2="730" y2="277" stroke="#bfbfbf" stroke-width="1"></line>
<text x="52" y="281" text-anchor="end" font-size="11" fill="#333333">0</text>
<line x1="60" y1="199" x2="730" y2="199" stroke="#bfbfbf" stroke-width="1"></line>
<text x="52" y="203" text-anchor="end" font-size="11" fill="#333333">5</text>
<line x1="60" y1="120" x2="730" y2="120" stroke="#bfbfbf" stroke-width="1"></line>
<text x="52" y="124" text-anchor="end" font-size="11" fill="#333333">10</text>
<line x1="60" y1="42" x2="730" y2="42" stroke="#bfbfbf" stroke-width="1"></line>
<text x="52" y="46" text-anchor="end" font-size="11" fill="#333333">15</text>
<line x1="60" y1="277" x2="730" y2="277" stroke="#808080" stroke-width="1"></line>
<rect x="85" y="152" width="117" height="125" fill="#2563EB"></rect>
<text x="143.75" y="371" text-anchor="middle" font-size="10" fill="#333333">Alpha</text>
<line x1="143.75" y1="277" x2="143.75" y2="281" stroke="#808080" stroke-width="1"></line>
<rect x="253" y="277" width="117" height="0" fill="#2563EB"></rect>
<text x="311.25" y="371" text-anchor="middle" font-size="10" fill="#333333">Beta</text>
<line x1="311.25" y1="277" x2="311.25" y2="281" stroke="#808080" stroke-width="1"></line>
<rect x="420" y="277" width="117" height="63" fill="#2563EB"></rect>
<text x="478.75" y="371" text-anchor="middle" font-size="10" fill="#333333">Gamma</text>
<line x1="478.75" y1="277" x2="478.75" y2="281" stroke="#808080" stroke-width="1"></line>
<rect x="588" y="89" width="117" height="188" fill="#2563EB"></rect>
<text x="646.25" y="371" text-anchor="middle" font-size="10" fill="#333333">Delta</text>
<line x1="646.25" y1="277" x2="646.25" y2="281" stroke="#808080" stroke-width="1"></line>
</svg>